# xmcd
#
# Track frame offsets:
#	150
#	14058
#	27745
#	45129
#	73376
#	93341
#	108666
#	127898
#	145597
#	158914
#	178623
#	196308
#
# Disc length: 2807 seconds
#
# Revision: 3
# Processed by: cddbd v1.4PL0 Copyright (c) Steve Scherf et al.
# Submitted via: audiograbber 1.80
#
DISCID=a50af50c
DTITLE=Harry Manx - Wise And Otherwise
DYEAR=2001
DGENRE=Blues
TTITLE0=Only Then Will Your House Be Blessed
TTITLE1=Death Have Mercy
TTITLE2=Roses Given
TTITLE3=The Gist Of Madhuvanti/The Thrill Is Gone
TTITLE4=Coat Of Mail
TTITLE5=Don't Forget To Miss Me
TTITLE6=A Little Cruel
TTITLE7=Crazy Love
TTITLE8=Foxy Lady
TTITLE9=Makes You Wanna Die Laughing
TTITLE10=Tethered Dogs
TTITLE11=Raga Nat Bhariav
EXTD=YEAR: 2001 ID3G:   0
EXTT0=
EXTT1=
EXTT2=
EXTT3=
EXTT4=
EXTT5=
EXTT6=
EXTT7=
EXTT8=
EXTT9=
EXTT10=
EXTT11=
PLAYORDER=
